<?xml version="1.0" encoding="UTF-8"?>
<svg width="107px" height="70px" viewBox="0 0 107 70" version="1.1" xmlns="http://www.w3.org/2000/svg" xmlns:xlink="http://www.w3.org/1999/xlink">
    <!-- Generator: Sketch 58 (84663) - https://sketch.com -->
    <title>Logo</title>
    <desc>Created with Sketch.</desc>
    <g id="Design" stroke="none" stroke-width="1" fill="none" fill-rule="evenodd">
        <g id="GBC-Homepage-Large-Desktop-1920" transform="translate(-33.000000, -70.000000)" fill-rule="nonzero">
            <g id="Primary-Header" transform="translate(0.000000, 50.000000)">
                <g id="main-links" transform="translate(33.000000, 20.000000)">
                    <g id="Logo">
                        <path d="M105.339806,1.3592233 L105.339806,68.4300971 L1.3592233,68.4300971 L1.3592233,1.3592233 L105.339806,1.3592233 L105.339806,1.3592233 Z M106.699029,0 L0,0 L0,69.7893204 L106.699029,69.7893204 L106.699029,0 Z" id="Shape" fill="#FFFFFF"></path>
                        <rect id="Rectangle" fill="#F68233" x="92.7330097" y="1.3592233" width="12.6" height="8.15533981"></rect>
                        <rect id="Rectangle" fill="#FCB033" x="92.7330097" y="8.80776699" width="12.6" height="8.15533981"></rect>
                        <rect id="Rectangle" fill="#C3ABD3" x="92.7330097" y="16.2631068" width="12.6" height="8.15533981"></rect>
                        <rect id="Rectangle" fill="#7482BF" x="92.7330097" y="23.7116505" width="12.6" height="8.15533981"></rect>
                        <rect id="Rectangle" fill="#70D0F6" x="92.7330097" y="31.1601942" width="12.6" height="8.15533981"></rect>
                        <rect id="Rectangle" fill="#009DDC" x="92.7330097" y="38.615534" width="12.6" height="8.15533981"></rect>
                        <rect id="Rectangle" fill="#FFD204" x="92.7330097" y="46.0640777" width="12.6" height="8.15533981"></rect>
                        <rect id="Rectangle" fill="#9FCF67" x="92.7330097" y="53.5194175" width="12.6" height="8.15533981"></rect>
                        <rect id="Rectangle" fill="#08AF3F" x="92.7330097" y="60.9679612" width="12.6" height="7.45533981"></rect>
                        <rect id="Rectangle" fill="#005AA5" x="1.3592233" y="1.3592233" width="91.3737864" height="67.0708738"></rect>
                        <g id="Group" transform="translate(8.155340, 8.834951)" fill="#FFFFFF">
                            <path d="M34.5174757,31.3436893 L33.368932,31.3436893 L58.2087379,40.776699 C34.4223301,57.7669903 -3.81941748,34.938835 4.3223301,10.9757282 C-1.63106796,32.9883495 32.4038835,50.5223301 50.1757282,39.9883495 L32.2135922,31.3436893 L30.7048544,31.3436893 L42.6864078,39.315534 C26.8174757,44.0184466 6.2184466,29.9029126 6.2184466,15.1893204 C6.2184466,4.0776699 18.6281553,-2.86796117 38.0990291,4.22038835 C19.4640777,-3.98932039 0.346601942,1.82815534 0.203883495,17.9417476 C-0.040776699,45.4728155 42.7679612,62.2524272 65.7932039,40.9533981 L34.5174757,31.3436893 Z" id="Path"></path>
                            <path d="M43.3864078,7.29902913 C42.2432797,6.09057131 40.6384463,5.4278666 38.9757282,5.4776699 C35.5609673,5.43845816 32.6629646,7.97347863 32.2475728,11.3631068 C32.0809019,12.8427087 32.5474522,14.3238209 33.5320388,15.4407767 C34.6739103,16.6274171 36.2625067,17.278643 37.9087379,17.2349515 C41.3469276,17.3437163 44.2977326,14.806024 44.7048544,11.3902913 C44.870716,9.9007387 44.390783,8.41146218 43.3864078,7.29902913 Z M37.9970874,16.1339806 C37.0549671,16.148771 36.1526538,15.7546286 35.523301,15.0533981 C34.6726245,14.0012616 34.3049733,12.639225 34.5106796,11.3019417 C34.7757282,8.53592233 36.5495146,6.57864078 38.8737864,6.57864078 C39.8273272,6.56987982 40.7394255,6.96784142 41.3815534,7.67281553 C42.2226256,8.70864002 42.5900379,10.0500649 42.3941748,11.3699029 C42.1359223,14.1291262 40.2873786,16.1543689 37.9970874,16.1543689 L37.9970874,16.1339806 Z" id="Shape"></path>
                            <path d="M48.5854369,6.68737864 L49.4009709,6.68737864 C49.9527836,6.65312668 50.4948473,6.84444331 50.9029126,7.21747573 C51.1745935,7.53912797 51.3131618,7.95240195 51.2902913,8.37281553 C51.2968027,8.47011772 51.2968027,8.56774635 51.2902913,8.66504854 C51.1995711,9.97466452 50.0650462,10.9631916 48.7553398,10.8737864 L48.184466,10.8737864 C48.2116505,10.5815534 48.5650485,6.92524272 48.5854369,6.68737864 Z M52.6970874,13.1572816 C52.3974485,12.2827185 51.6937084,11.6068242 50.807767,11.3427184 C51.0786815,11.2967872 51.3432727,11.2192346 51.5961165,11.1116505 C52.6353875,10.6980314 53.3512639,9.73212455 53.4446602,8.61747573 C53.4446602,8.51553398 53.4446602,8.42038835 53.4446602,8.33203883 C53.4599811,7.57006613 53.124185,6.84334329 52.5339806,6.36116505 C51.8135922,5.81067961 51.1747573,5.6407767 49.6796117,5.6407767 L45.9961165,5.6407767 L45.9145631,6.03495146 C46.3970874,6.22524272 46.5533981,6.43592233 46.4582524,7.45533981 L45.7038835,15.3048544 C45.6223301,16.3174757 45.3165049,16.5349515 44.9019417,16.6640777 L44.9699029,17.0582524 L48.2524272,17.0582524 L48.3271845,16.6572816 C48.0961165,16.5757282 47.9533981,16.507767 47.892233,16.3786408 C47.7880526,16.143663 47.739225,15.8878991 47.7495146,15.631068 C47.7495146,15.5087379 47.7495146,15.3728155 47.7495146,15.2368932 C47.7495146,15.2368932 48.007767,12.4300971 48.068932,11.838835 L48.6601942,11.838835 C49.1495146,11.838835 50.0194175,11.838835 50.576699,13.2728155 L51.2563107,15.3524272 C51.6980583,16.7116505 51.9359223,17.0718447 52.8669903,17.0718447 L54.4708738,17.0718447 L54.5728155,16.6708738 C54.308192,16.6383488 54.0655376,16.5073154 53.8932039,16.3038835 C53.6092367,15.8689978 53.3959161,15.3918938 53.261165,14.8902913 L53.0097087,14.1359223 L52.6970874,13.1572816 Z" id="Shape"></path>
                            <path d="M33.4029126,19.5864078 L34.2184466,19.5864078 C34.7679534,19.5540263 35.3072051,19.7452156 35.7135922,20.1165049 C35.9857042,20.4405833 36.1242134,20.8561108 36.1009709,21.2786408 C36.1009709,21.3669903 36.1009709,21.4621359 36.1009709,21.5640777 C36.0101057,22.8727243 34.8823107,23.8640925 33.5728155,23.7864078 L33.0019417,23.7864078 C33.0291262,23.4805825 33.3825243,19.8242718 33.4029126,19.5864078 Z M37.5145631,26.0563107 C37.212009,25.1836111 36.5094398,24.5088414 35.6252427,24.2417476 C35.8968765,24.1989797 36.1618506,24.1213149 36.4135922,24.0106796 C37.4528632,23.5970605 38.1687397,22.6311537 38.2621359,21.5165049 C38.2621359,21.4213592 38.2621359,21.3262136 38.2621359,21.231068 C38.2840392,20.4756063 37.9584459,19.7517872 37.3786408,19.2669903 C36.6582524,18.7097087 36.0194175,18.5398058 34.5174757,18.5398058 L30.8067961,18.5398058 L30.7320388,18.9407767 C31.2145631,19.131068 31.3708738,19.3417476 31.268932,20.361165 L30.5213592,28.2106796 C30.4398058,29.223301 30.1271845,29.4407767 29.7194175,29.5699029 L29.7941748,29.9776699 L33.0699029,29.9776699 L33.1446602,29.5699029 C32.9135922,29.4883495 32.7708738,29.4203883 32.7097087,29.2980583 C32.6036025,29.0636866 32.554687,28.8074625 32.5669903,28.5504854 C32.5669903,28.4213592 32.5669903,28.2854369 32.5669903,28.1495146 C32.5669903,28.1495146 32.8252427,25.3495146 32.8796117,24.7514563 L33.4776699,24.7514563 C33.9669903,24.7514563 34.8368932,24.7514563 35.3941748,26.1854369 L36.0737864,28.2718447 C36.5087379,29.631068 36.7533981,29.984466 37.6912621,29.984466 L39.2883495,29.984466 L39.3902913,29.576699 C39.1375406,29.5407451 38.9060584,29.4153589 38.7378641,29.223301 C38.4360302,28.7896913 38.2065137,28.310002 38.0582524,27.8029126 L37.8135922,27.0349515 L37.5145631,26.0563107 Z" id="Shape"></path>
                            <path d="M65.1543689,11.9543689 C65.1304227,11.4492195 65.4435879,10.9891715 65.9223301,10.8262136 L65.8339806,10.4456311 L62.9728155,10.4456311 L62.8912621,10.8262136 C63.2598644,10.9575085 63.4865023,11.3286279 63.4349515,11.7165049 C63.4349515,11.7980583 63.4349515,11.8864078 63.4349515,11.9815534 L63.1427184,15.3796117 L63.061165,15.4203883 C62.2845734,15.8987312 61.3907285,16.1527714 60.4786408,16.1543689 C59.3586608,16.2055269 58.2719338,15.7663701 57.5019417,14.9514563 C56.6913548,13.946492 56.3455156,12.6446546 56.5504854,11.3699029 C56.8087379,8.65145631 58.7456311,6.61262136 61.0631068,6.61262136 C62.8662243,6.5736671 64.4002461,7.91888627 64.5970874,9.71165049 L65.0116505,9.71165049 L65.2019417,6.70776699 L65.1067961,6.63300971 C63.8868862,5.86241617 62.4720198,5.45682115 61.0291262,5.46407767 C57.6023794,5.38432086 54.6958066,7.96464566 54.368932,11.376699 C54.1600072,12.8873983 54.6161516,14.4144905 55.6194175,15.5631068 C56.7638627,16.7245369 58.3467344,17.3468203 59.9757282,17.2757282 C61.7647551,17.2445083 63.5128689,16.7353262 65.038835,15.8009709 L65.2359223,15.6650485 L65.1203883,15.5359223 C65.0456311,15.4407767 64.8961165,15.2912621 64.9029126,15.1417476 C64.8997884,15.0874235 64.8997884,15.0329648 64.9029126,14.9786408 C64.9029126,14.9786408 65.1543689,11.961165 65.1543689,11.9543689 Z" id="Path"></path>
                            <path d="M26.5048544,21.4213592 C26.3599255,22.5429797 25.3626825,23.3551057 24.2349515,23.2699029 L23.0660194,23.2699029 C23.0660194,23.0252427 23.4058252,19.7019417 23.4194175,19.4912621 L24.6291262,19.4912621 C25.1857171,19.4699268 25.7248761,19.6875689 26.1106796,20.0893204 C26.3914695,20.4027794 26.5442789,20.8102713 26.538835,21.231068 C26.530962,21.2950669 26.5196184,21.3585909 26.5048544,21.4213592 L26.5048544,21.4213592 Z M23.1067961,24.2825243 L24.3708738,24.2825243 C25.1923909,24.2277889 25.9990123,24.52133 26.5932039,25.0912621 C26.9237442,25.4657527 27.1009032,25.9511199 27.0893204,26.4504854 C27.0893204,26.538835 27.0893204,26.6203883 27.0893204,26.7087379 C26.9533981,28.0679612 25.8456311,28.9718447 24.2009709,28.9718447 L22.6786408,28.9718447 C22.7058252,28.7271845 23.1067961,24.4660194 23.1067961,24.2825243 L23.1067961,24.2825243 Z M24.4660194,30.0252427 C25.2689488,30.073671 26.0725111,29.9412922 26.8174757,29.6378641 C27.286031,29.4432019 27.7094106,29.1540082 28.061165,28.7883495 C28.5842501,28.2782879 28.9093664,27.5991561 28.9786408,26.8718447 C28.9853958,26.7722827 28.9853958,26.6723775 28.9786408,26.5728155 C29.0076242,25.2810223 28.15712,24.1339607 26.9126214,23.7864078 C26.77108,23.7359411 26.6255977,23.6972974 26.4776699,23.6708738 C26.7172073,23.5857214 26.9454372,23.4716065 27.1572816,23.331068 C27.9191899,22.8586328 28.4206823,22.0612599 28.5165049,21.1699029 C28.5165049,21.1019417 28.5165049,21.0339806 28.5165049,20.9660194 C28.3960641,19.763248 27.4809258,18.7923086 26.2873786,18.6009709 C25.768971,18.4939213 25.2397595,18.4482997 24.7106796,18.4650485 L21.0679612,18.4650485 L21.0203883,18.8320388 C21.3330097,18.9203883 21.5097087,19.0631068 21.5097087,19.6679612 C21.5097087,19.8038835 21.5097087,19.9601942 21.5097087,20.1436893 L20.6669903,28.4349515 C20.6566868,28.5789297 20.6362478,28.7220027 20.6058252,28.8631068 C20.4902913,29.461165 20.3135922,29.5427184 19.9805825,29.631068 L19.9805825,30.0252427 L24.4660194,30.0252427 Z" id="Shape"></path>
                            <path d="M52.2145631,20.2796117 L55.4019417,30.3514563 C55.4019417,30.3514563 57.6854369,26.4097087 58.0796117,25.6281553 C58.392233,26.423301 59.7174757,30.3514563 59.7174757,30.3514563 L64.3184466,20.4427184 C64.7533981,19.4980583 65.1951456,19.0834951 65.6776699,19.0834951 C66.1601942,19.0834951 66.7378641,19.4165049 66.6359223,20.5378641 L65.9223301,28.0815534 C65.8271845,29.0873786 65.7184466,29.3320388 65.0592233,29.6106796 L65.1339806,29.9980583 L67.5058252,29.9980583 L67.5941748,29.6038835 C67.4049356,29.5482769 67.2428264,29.4248803 67.138835,29.2572816 C67.0677213,29.0948894 67.0373909,28.9175728 67.0504854,28.7407767 C67.0527277,28.5611308 67.0663472,28.3818074 67.0912621,28.2038835 C67.4446602,24.5339806 67.6757282,21.9038835 67.7708738,20.9864078 C68.2805825,21.6660194 71.8485437,26.3349515 75.0087379,30.4058252 L75.9601942,20.4834951 C76.0757282,19.3485437 76.2456311,19.1242718 76.8708738,18.9543689 L76.7961165,18.5533981 L74.2951456,18.5533981 L74.2203883,18.9475728 C74.5330097,19.0902913 74.6281553,19.1854369 74.6961165,19.3417476 C74.7661896,19.5913471 74.793759,19.8509593 74.7776699,20.1097087 C74.7776699,20.238835 74.7776699,20.361165 74.7776699,20.4834951 C74.7776699,20.4834951 74.4038835,24.5203883 74.2747573,25.9203883 C73.8466019,25.3495146 68.6,18.5805825 68.6,18.5805825 L62.9660194,18.5805825 L62.8640777,19.1242718 C63.292233,19.2126214 63.3737864,19.2941748 63.3466019,19.5456311 C63.3466019,19.6543689 63.3466019,19.6543689 63.2038835,19.9533981 L60.3563107,26.1378641 C60.1252427,25.376699 59.4320388,23.215534 59.3980583,23.0796117 L60.8252427,20.2660194 C61.0316816,19.7620591 61.4129289,19.3494433 61.8990291,19.1038835 L61.8514563,18.5805825 L55.7349515,18.5805825 L55.5446602,19.0902913 C55.9886675,19.3259468 56.3049285,19.7467981 56.407767,20.238835 L57.5359223,23.9902913 C57.0601942,24.907767 56.6116505,25.7300971 56.2786408,26.3893204 C56.0135922,25.5737864 54.4708738,20.6330097 54.4708738,20.6330097 C54.3374193,20.2587286 54.2239901,19.8776065 54.131068,19.4912621 C54.131068,19.3417476 54.1718447,19.1786408 54.538835,19.0970874 L54.538835,18.5737864 L51.507767,18.5737864 L51.3242718,19.0359223 L51.3242718,19.0359223 C51.7807695,19.3089714 52.1032518,19.759462 52.2145631,20.2796117 Z M58.4466019,19.7087379 C58.3786408,19.4504854 58.4466019,19.0699029 59.0582524,19.0699029 C59.6699029,19.0699029 59.8126214,19.3485437 59.6699029,19.6747573 C59.5271845,20.0009709 58.9019417,21.2990291 58.9019417,21.2990291 C58.9019417,21.2990291 58.5213592,19.9737864 58.4466019,19.7087379 Z" id="Shape"></path>
                            <path d="M67.2407767,10.384466 L67.5262136,7.45533981 C67.6213592,6.48349515 67.5262136,6.23203883 66.9825243,6.00776699 L67.1320388,5.62038835 L73.9961165,5.62038835 L73.8330097,7.33300971 L73.4320388,7.37378641 C73.3504854,7.08834951 73.268932,6.97281553 73.1194175,6.89805825 C72.806907,6.77090313 72.4712013,6.71070763 72.1339806,6.72135922 L69.6398058,6.72135922 C69.6398058,6.97961165 69.3339806,10.031068 69.3067961,10.3097087 L70.9650485,10.3097087 C71.2899732,10.3519117 71.6201849,10.3000213 71.9165049,10.1601942 C72.1088006,10.0932389 72.2609436,9.94359007 72.331068,9.75242718 L72.7320388,9.80679612 L72.5213592,11.9271845 L72.1271845,11.9747573 C72.0757065,11.7882382 71.9471647,11.6325049 71.7737864,11.5466019 C71.4826347,11.4310099 71.1680573,11.386736 70.8563107,11.4174757 L69.1980583,11.4174757 C69.1980583,11.668932 68.8038835,15.6514563 68.776699,15.9436893 L71.2980583,15.9436893 C71.7881559,15.9692285 72.2787845,15.9047327 72.7456311,15.7533981 C73.0107518,15.6726956 73.2468077,15.5168987 73.4252427,15.3048544 L73.7650485,15.5087379 L73.2485437,17.0582524 L66.0378641,17.0582524 L65.9631068,16.6776699 C66.5135922,16.4533981 66.6902913,16.2223301 66.7854369,15.2504854 L67.1524272,11.3563107 L67.2407767,10.384466 Z" id="Path"></path>
                            <path d="M50.223301,20.2116505 C49.0807645,19.0064446 47.4794731,18.3441821 45.8194175,18.3902913 C42.4046566,18.3510795 39.506654,20.8861 39.0912621,24.2757282 C38.9183907,25.7547525 39.3829764,27.2374729 40.368932,28.3533981 C41.5081554,29.544685 43.0979005,30.1988503 44.7456311,30.1543689 C48.1861411,30.2627898 51.1378663,27.7213544 51.5417476,24.3029126 C51.7058353,22.8135393 51.2261314,21.3249737 50.223301,20.2116505 Z M44.8543689,29.0669903 C43.9140272,29.0799524 43.0132884,28.6889724 42.3805825,27.9932039 C41.5338534,26.9392054 41.1688833,25.5779657 41.3747573,24.2417476 C41.6330097,21.4757282 43.4135922,19.4843899 45.7378641,19.4843899 C46.7000168,19.477955 47.6175716,19.8896147 48.2524272,20.6126214 C49.0934994,21.6484458 49.4609117,22.9898707 49.2650485,24.3097087 C48.9728155,27.0485437 47.1242718,29.0669903 44.8543689,29.0669903 Z" id="Shape"></path>
                            <path d="M25.3699029,11.4174757 C24.8262136,11.4174757 23.4126214,11.3495146 23.4126214,11.9067961 C23.4126214,11.9067961 23.1271845,15.1621359 23.1271845,15.1621359 C23.1241827,15.2187305 23.1241827,15.2754443 23.1271845,15.3320388 C23.1271845,15.4883495 23.276699,15.6514563 23.3582524,15.7466019 L23.4805825,15.8825243 L23.2699029,16.0252427 C21.6683401,17.0057694 19.83299,17.5385373 17.9553398,17.5679612 C16.2449966,17.6473865 14.5817191,16.994927 13.3815534,15.7737864 C12.327478,14.4419788 11.8524447,12.7426325 12.0631068,11.0572816 C12.4216846,7.4684237 15.4917426,4.76617934 19.0970874,4.86601942 C20.6034427,4.86774974 22.0776568,5.30175836 23.3446602,6.11650485 L23.4533981,6.19126214 L23.2495146,9.23592233 L22.8145631,9.23592233 C22.5344383,7.4107891 20.9571269,6.06790376 19.1106796,6.08252427 C16.6708738,6.08252427 14.638835,8.2368932 14.3533981,11.0708738 C14.2106796,12.6271845 14.5368932,14.2514563 15.3524272,15.1485437 C16.156515,15.9742812 17.2724944,16.4211668 18.4242718,16.3786408 C19.3843758,16.381679 20.3261228,16.1156354 21.1427184,15.6106796 L21.231068,15.5631068 C21.2718447,15.1553398 21.5504854,11.9475728 21.5504854,11.9475728 C21.5564982,11.8547899 21.5564982,11.761715 21.5504854,11.668932 C21.5993452,11.258012 21.3564399,10.8682337 20.9660194,10.731068 L21.0543689,10.323301 L25.4446602,10.323301 L25.7368932,7.47572816 C25.8320388,6.5038835 25.7368932,6.25242718 25.2,6.02815534 L25.3563107,5.6407767 L32.2135922,5.6407767 L32.0504854,7.35339806 L31.6427184,7.39417476 C31.5679612,7.10873786 31.4932039,6.99320388 31.3436893,6.9184466 C31.0264092,6.79134975 30.686287,6.73119208 30.3446602,6.74174757 L27.8640777,6.74174757 C27.8640777,7 27.5582524,10.0514563 27.531068,10.3300971 L29.1825243,10.3300971 C29.5061457,10.3742933 29.8356789,10.3272171 30.1339806,10.1941748 C30.3262764,10.1272194 30.4784193,9.97757066 30.5485437,9.78640777 L30.9427184,9.8407767 L30.738835,11.961165 L30.3446602,12.0087379 C30.2931822,11.8222188 30.1646404,11.6664855 29.9912621,11.5805825 C29.6978841,11.464423 29.3809704,11.4201483 29.0669903,11.4514563 L27.415534,11.4514563 C27.415534,11.7029126 27.0213592,15.6854369 26.9941748,15.9776699 L29.515534,15.9776699 C30.0034299,16.0039284 30.4919618,15.9394053 30.9563107,15.7873786 C31.2222859,15.7085026 31.4588306,15.552383 31.6359223,15.338835 L31.9757282,15.5427184 L31.4660194,17.092233 L24.2621359,17.092233 L24.1873786,16.7116505 C24.731068,16.4873786 24.907767,16.2563107 25.0029126,15.284466 C25.0029126,15.2504854 25.3427184,11.7097087 25.3699029,11.4174757 Z" id="Path"></path>
                            <path d="M51.215534,33.7970874 C51.1520798,34.3108472 51.3102393,34.8273371 51.6504854,35.2174757 C52.0531068,35.6572698 52.624177,35.9044863 53.2203883,35.8970874 C53.7530659,35.9000177 54.2782578,35.7716375 54.7495146,35.523301 L54.7495146,35.523301 L54.7495146,35.523301 C54.9058252,34.6466019 54.9058252,34.6466019 54.8446602,34.6262136 L54.7902913,34.6262136 L54.7902913,34.6737864 C54.5319283,35.1881165 54.0066368,35.5137972 53.431068,35.5165049 C53.0573841,35.5399993 52.6922012,35.3983977 52.4320388,35.1291262 C52.1342452,34.764116 52.0057509,34.2896755 52.0786408,33.8242718 C52.1045027,32.9367855 52.8354719,32.2330011 53.723301,32.2407767 C54.2532171,32.2208606 54.7278794,32.5663249 54.8718447,33.076699 L54.8718447,33.131068 L54.9330097,33.131068 C54.9941748,33.131068 54.9941748,33.131068 55.0145631,32.1796117 L55.0145631,32.138835 L55.0145631,32.138835 C54.5908105,31.9343688 54.1258311,31.8297484 53.6553398,31.8330097 C52.4639676,31.781281 51.4194249,32.6221525 51.215534,33.7970874 Z" id="Path"></path>
                            <path d="M55.768932,33.7427184 C55.7006455,34.2661574 55.85608,34.7941415 56.1970874,35.1970874 C56.5938404,35.6291444 57.1532183,35.8755664 57.7398058,35.876699 L57.7398058,35.876699 C58.9549437,35.9292461 60.0085107,35.0438957 60.1660194,33.8378641 C60.2440105,33.3169392 60.0900414,32.787981 59.7446602,32.3902913 C59.3522456,31.9640759 58.8016324,31.7182664 58.2223301,31.7106796 C57.0036569,31.6563258 55.9424891,32.5352432 55.768932,33.7427184 L55.768932,33.7427184 Z M58.1339806,32.1252427 C58.4283681,32.1183167 58.7111892,32.2398801 58.9087379,32.4582524 C59.1950904,32.8492813 59.3103702,33.3398335 59.2281553,33.8174757 C59.1398058,34.768932 58.5485437,35.3941748 57.8213592,35.3941748 C57.524812,35.3976671 57.2416394,35.2709847 57.0466019,35.0475728 C56.7926977,34.7520857 56.6635448,34.3695007 56.6864078,33.9805825 C56.6864078,33.892233 56.6864078,33.7970874 56.6864078,33.6883495 C56.8019417,32.7436893 57.3660194,32.1252427 58.1339806,32.1252427 L58.1339806,32.1252427 Z" id="Shape"></path>
                            <path d="M61.2805825,31.7582524 L61.2805825,31.8873786 C61.3556718,31.9182968 61.3983852,31.9980284 61.3825243,32.0776699 L61.0631068,35.4757282 C61.0496234,35.5660866 60.9905556,35.6431315 60.9067961,35.6796117 L60.9067961,35.8087379 L63.3737864,35.8087379 L63.5776699,35.1291262 L63.4621359,35.0747573 C63.2718447,35.3737864 63.1019417,35.3805825 62.4699029,35.407767 L61.9398058,35.407767 L61.892233,35.407767 C61.892233,35.2854369 62.2116505,32.1456311 62.2116505,32.1456311 C62.2142256,32.0572643 62.2669939,31.9781118 62.3475728,31.9417476 L62.3475728,31.8126214 L61.2805825,31.7582524 Z" id="Shape"></path>
                            <path d="M64.7398058,31.7582524 L64.7398058,31.8873786 C64.8186204,31.9185028 64.8642441,32.0011957 64.8485437,32.084466 L64.515534,35.4825243 C64.507394,35.5729659 64.4498321,35.6514594 64.3660194,35.6864078 L64.3660194,35.815534 L66.8398058,35.815534 L67.0436893,35.1359223 L66.9281553,35.0815534 C66.731068,35.3873786 66.561165,35.3873786 65.9291262,35.4145631 L65.3990291,35.4145631 L65.3582524,35.4145631 C65.3582524,35.292233 65.6708738,32.1524272 65.6708738,32.1524272 C65.6777461,32.0635391 65.7324255,31.9854257 65.8135922,31.9485437 L65.8135922,31.8194175 L64.7398058,31.7582524 Z" id="Path"></path>
                            <path d="M70.5165049,31.7582524 L68.1990291,31.7582524 L68.1990291,31.8873786 C68.2744966,31.9193155 68.3210426,31.9959795 68.3145631,32.0776699 L67.9815534,35.4757282 C67.9815534,35.5776699 67.9203883,35.6252427 67.8184466,35.6796117 L67.607767,35.8087379 L70.3805825,35.8087379 L70.5708738,35.1291262 L70.4621359,35.0679612 C70.2446602,35.3873786 70.0475728,35.3941748 69.5990291,35.407767 L69.531068,35.407767 C69.3048369,35.4244222 69.0776874,35.4244222 68.8514563,35.407767 C68.8514563,35.2990291 68.9941748,33.9466019 69.0009709,33.8446602 L69.8165049,33.8446602 C69.8755321,33.857543 69.9226029,33.9019988 69.938835,33.9601942 L70.0679612,33.9601942 L70.1291262,33.3485437 L70,33.3485437 C69.9675327,33.4123989 69.9072851,33.4575846 69.8368932,33.4708738 L69.0417476,33.4708738 C69.0417476,33.3553398 69.1436893,32.376699 69.1572816,32.2747573 L70.0747573,32.2747573 C70.2854369,32.2747573 70.3737864,32.3291262 70.4485437,32.4514563 L70.5572816,32.6281553 L70.6048544,31.8466019 L70.5165049,31.7582524 Z" id="Path"></path>
                            <path d="M71.3592233,33.7970874 C71.3020689,34.312587 71.4649229,34.8282914 71.807767,35.2174757 C72.222068,35.6527528 72.7971344,35.8985077 73.3980583,35.8970935 C74.0299797,35.8783341 74.651682,35.732731 75.2262136,35.468932 L75.307767,35.4281553 L75.2398058,35.3669903 C75.2029129,35.3158713 75.1859922,35.2530232 75.192233,35.1902913 L75.2737864,34.3339806 C75.2827331,34.2405362 75.3392569,34.1583198 75.423301,34.1165049 L75.6339806,33.9941748 L74.0776699,33.9941748 L74.2747573,34.1165049 C74.3341602,34.1491311 74.3707427,34.2118439 74.3699029,34.2796117 C74.3699029,34.2796117 74.3699029,34.2796117 74.3699029,34.3203883 L74.2815534,35.2854369 C74.0718365,35.3947604 73.8384323,35.4507774 73.6019417,35.4485437 C73.2263688,35.471297 72.859402,35.3299652 72.5961165,35.061165 C72.3096496,34.6906009 72.1846954,34.2201852 72.2495146,33.7563107 C72.2788506,32.8730441 73.0036252,32.1723285 73.8873786,32.1728155 C74.4200038,32.1651127 74.8912613,32.5164644 75.0359223,33.0291262 L75.1582524,33.0291262 L75.2126214,32.0708738 L75.1718447,32.0708738 C74.7458723,31.8728494 74.2823593,31.768559 73.8126214,31.7650485 C72.598218,31.7233193 71.544389,32.5961584 71.3592233,33.7970874 L71.3592233,33.7970874 Z" id="Path"></path>
                            <path d="M78.8349515,31.7582524 L76.5106796,31.7582524 L76.5106796,31.8873786 C76.5942031,31.9135138 76.6442098,31.9988194 76.6262136,32.084466 L76.3,35.4825243 C76.2879397,35.5755987 76.2250502,35.6542107 76.1368932,35.6864078 L75.9126214,35.815534 L78.692233,35.815534 L78.8893204,35.1359223 L78.7805825,35.0747573 C78.5563107,35.3941748 78.3660194,35.4009709 77.9106796,35.4145631 L77.8427184,35.4145631 C77.6163665,35.4275187 77.3894588,35.4275187 77.1631068,35.4145631 C77.1631068,35.3058252 77.3058252,33.9533981 77.3194175,33.8514563 L78.1553398,33.8514563 C78.2162604,33.8634779 78.2657703,33.9077763 78.284466,33.9669903 L78.4067961,33.9669903 L78.4679612,33.3553398 L78.3456311,33.3553398 C78.3103404,33.4167605 78.2513695,33.4609886 78.1825243,33.4776699 L77.3873786,33.4776699 C77.3873786,33.3621359 77.4893204,32.3834951 77.5029126,32.2815534 L78.4135922,32.2815534 C78.6242718,32.2815534 78.7194175,32.3359223 78.7941748,32.4582524 L78.9029126,32.6281553 L78.9504854,31.8533981 L78.8349515,31.7582524 Z" id="Path"></path>
                        </g>
                    </g>
                </g>
            </g>
        </g>
    </g>
</svg>